Coordinates
version=1
nRows=17
nColumns=40
inDegrees=yes

Units are S.I. units (second, meters, Newtons, ...)
If the header above contains a line with 'inDegrees', this indicates whether rotational values are in degrees (yes) or radians (no).

endheader
time	pelvis_tilt	pelvis_list	pelvis_rotation	pelvis_tx	pelvis_ty	pelvis_tz	hip_flexion_r	hip_adduction_r	hip_rotation_r	knee_angle_r	knee_angle_r_beta	ankle_angle_r	subtalar_angle_r	mtp_angle_r	hip_flexion_l	hip_adduction_l	hip_rotation_l	knee_angle_l	knee_angle_l_beta	ankle_angle_l	subtalar_angle_l	mtp_angle_l	lumbar_extension	lumbar_bending	lumbar_rotation	arm_flex_r	arm_add_r	arm_rot_r	elbow_flex_r	pro_sup_r	wrist_flex_r	wrist_dev_r	arm_flex_l	arm_add_l	arm_rot_l	elbow_flex_l	pro_sup_l	wrist_flex_l	wrist_dev_l
      1.85000000	     -1.01749385	      1.25837899	    -11.29676795	      1.82277989	      0.90098123	      0.25908829	    -20.71889514	     -5.78659416	     -7.48848916	     16.20730483	      0.28287083	    -11.39293254	      1.74599181	      0.00000000	     22.56112914	     -5.05438377	    -28.14919095	     12.08296007	      0.21088744	    -12.27792684	      4.07484805	      0.00000000	     10.82333027	     -1.32181371	      8.39953733	     44.07985490	    -15.87584851	     44.07985490	     75.11388220	     44.99887844	      0.00000000	      0.00000000	     44.07985490	    -15.87584851	     44.07985490	     75.11388220	     44.99887844	      0.00000000	      0.00000000
      1.85500000	     -0.85003769	      1.43625242	    -11.20226617	      1.83069617	      0.90158879	      0.25827391	    -20.62941397	     -6.08956991	     -7.29833487	     17.22066515	      0.30055731	    -13.08056944	      0.41193239	      0.00000000	     22.30381314	     -4.81116959	    -27.68937774	     12.81778883	      0.22371262	    -12.50483539	      3.15606343	      0.00000000	     10.76920683	     -1.53879988	      8.51353497	     44.08207401	    -15.87235941	     44.08207401	     75.11299627	     44.99890254	      0.00000000	      0.00000000	     44.08207401	    -15.87235941	     44.08207401	     75.11299627	     44.99890254	      0.00000000	      0.00000000
      1.86000000	     -0.59061725	      1.69716591	    -11.05776234	      1.83874951	      0.90227206	      0.25739407	    -20.56376417	     -6.51984406	     -7.37544573	     18.36808319	      0.32058353	    -14.71590275	     -0.64796665	      0.00000000	     21.95317584	     -4.45498418	    -27.35833210	     13.56894445	      0.23682276	    -12.58962857	      2.51819509	      0.00000000	     10.65922115	     -1.85149995	      8.63707996	     44.08296541	    -15.87095942	     44.08296541	     75.11264173	     44.99891209	      0.00000000	      0.00000000	     44.08296541	    -15.87095942	     44.08296541	     75.11264173	     44.99891209	      0.00000000	      0.00000000
      1.86500000	     -0.47870077	      1.89406409	    -10.90601376	      1.84670107	      0.90283403	      0.25646550	    -20.24105141	     -6.84284467	     -7.38467524	     19.69686532	      0.34377515	    -16.36800923	     -2.01654148	      0.00000000	     21.73295658	     -4.14005813	    -26.81064812	     14.24683968	      0.24865426	    -12.65863488	      1.66417855	      0.00000000	     10.69266636	     -2.10155771	      8.66346459	     44.08447246	    -15.86859444	     44.08447246	     75.11204401	     44.99892808	      0.00000000	      0.00000000	     44.08447246	    -15.86859444	     44.08447246	     75.11204401	     44.99892808	      0.00000000	      0.00000000
      1.87000000	     -0.26751053	      2.08927847	    -10.73113324	      1.85468945	      0.90355241	      0.25540174	    -19.97783216	     -7.20968828	     -7.49955697	     21.09136239	      0.36811372	    -18.04694946	     -3.11594729	      0.00000000	     21.38224374	     -3.77984539	    -26.34527132	     14.90054670	      0.26006360	    -12.57976998	      0.92357670	      0.00000000	     10.60964707	     -2.33658762	      8.64817702	     44.08575288	    -15.86658719	     44.08575288	     75.11153798	     44.99894149	      0.00000000	      0.00000000	     44.08575288	    -15.86658719	     44.08575288	     75.11153798	     44.99894149	      0.00000000	      0.00000000
      1.87500000	     -0.07722279	      2.28845261	    -10.55194494	      1.86263990	      0.90423384	      0.25434397	    -19.60334637	     -7.58754934	     -7.66542350	     22.63416571	      0.39504072	    -19.67396158	     -4.29577703	      0.00000000	     21.03564702	     -3.39743934	    -25.85832665	     15.51209231	      0.27073708	    -12.44679356	      0.20484981	      0.00000000	     10.55834172	     -2.58547782	      8.62215469	     44.08683074	    -15.86489889	     44.08683074	     75.11111322	     44.99895267	      0.00000000	      0.00000000	     44.08683074	    -15.86489889	     44.08683074	     75.11111322	     44.99895267	      0.00000000	      0.00000000
      1.88000000	      0.05501462	      2.49479800	    -10.36515906	      1.87053197	      0.90483802	      0.25322176	    -19.07022122	     -7.97887681	     -7.85422247	     24.34526936	      0.42490511	    -21.24557309	     -5.52317300	      0.00000000	     20.72445478	     -2.97917557	    -25.34328275	     16.05416096	      0.28019797	    -12.26923430	     -0.56619469	      0.00000000	     10.57255218	     -2.83636264	      8.54617678	     44.08801389	    -15.86304717	     44.08801389	     75.11064827	     44.99896482	      0.00000000	      0.00000000	     44.08801389	    -15.86304717	     44.08801389	     75.11064827	     44.99896482	      0.00000000	      0.00000000
      1.88500000	      0.20244808	      2.70246372	    -10.19291566	      1.87839887	      0.90546626	      0.25211001	    -18.48108419	     -8.40168345	     -8.07910058	     26.16553462	      0.45667473	    -22.75727020	     -6.71838323	      0.00000000	     20.36138355	     -2.54218039	    -24.86705695	     16.54203813	      0.28871303	    -12.02096636	     -1.29698289	      0.00000000	     10.57079300	     -3.09008408	      8.45345015	     44.08909812	    -15.86135165	     44.08909812	     75.11022336	     44.99897584	      0.00000000	      0.00000000	     44.08909812	    -15.86135165	     44.08909812	     75.11022336	     44.99897584	      0.00000000	      0.00000000
      1.89000000	      0.52641362	      2.74725722	    -10.11289117	      1.88613517	      0.90644473	      0.25114606	    -18.09473818	     -8.70474422	     -8.11398184	     27.86215483	      0.48628634	    -24.26833712	     -7.37437711	      0.00000000	     19.72432457	     -2.26415263	    -24.44669315	     16.95951283	      0.29599934	    -11.59779278	     -1.77388158	      0.00000000	     10.33883780	     -3.22309982	      8.37156280	     44.08953124	    -15.86067476	     44.08953124	     75.11005397	     44.99898021	      0.00000000	      0.00000000	     44.08953124	    -15.86067476	     44.08953124	     75.11005397	     44.99898021	      0.00000000	      0.00000000
      1.89500000	      0.37603876	      3.18094868	     -9.92284875	      1.89398212	      0.90651588	      0.25002125	    -16.92467663	     -9.36220620	     -8.50062950	     30.16397424	      0.52646067	    -25.53986930	     -9.14050644	      0.00000000	     19.66475383	     -1.58955505	    -24.04167469	     17.29682873	      0.30188661	    -11.44440413	     -2.70476802	      0.00000000	     10.72574705	     -3.66713350	      8.27597730	     44.09086380	    -15.85859332	     44.09086380	     75.10953383	     44.99899356	      0.00000000	      0.00000000	     44.09086380	    -15.85859332	     44.09086380	     75.10953383	     44.99899356	      0.00000000	      0.00000000
      1.90000000	      0.47428888	      3.45955945	     -9.81054118	      1.90168706	      0.90700194	      0.24899712	    -16.05894506	     -9.92733032	     -8.72991533	     32.30594535	      0.56384511	    -26.72285654	    -10.26708327	      0.00000000	     19.25259332	     -1.04723702	    -23.69671488	     17.56245606	      0.30652268	    -11.10484147	     -3.37442331	      0.00000000	     10.80172251	     -4.01787011	      8.15136424	     44.09204495	    -15.85675010	     44.09204495	     75.10907427	     44.99900527	      0.00000000	      0.00000000	     44.09204495	    -15.85675010	     44.09204495	     75.10907427	     44.99900527	      0.00000000	      0.00000000
      1.90500000	      0.48352282	      3.93063977	     -9.72527304	      1.90939544	      0.90725568	      0.24789799	    -14.96507182	    -10.77317155	     -9.07553484	     34.67396249	      0.60517481	    -27.56040742	    -11.04777987	      0.00000000	     18.89268694	     -0.27222852	    -23.39818150	     17.64364013	      0.30793961	    -10.87966816	     -4.13251847	      0.00000000	     11.03517833	     -4.59356862	      7.91678027	     44.09542680	    -15.85148115	     44.09542680	     75.10776575	     44.99903811	      0.00000000	      0.00000000	     44.09542680	    -15.85148115	     44.09542680	     75.10776575	     44.99903811	      0.00000000	      0.00000000
      1.91000000	      0.58833272	      4.12947716	     -9.69005714	      1.91690184	      0.90786576	      0.24698375	    -14.05437716	    -11.23393080	     -9.05233633	     36.75624869	      0.64151756	    -28.71374319	    -12.32540152	      0.00000000	     18.40068541	      0.16858533	    -23.21406712	     17.80694442	      0.31078981	    -10.46735004	     -4.56854541	      0.00000000	     11.06802273	     -4.82924059	      7.83656889	     44.09670852	    -15.84948760	     44.09670852	     75.10727268	     44.99905030	      0.00000000	      0.00000000	     44.09670852	    -15.84948760	     44.09670852	     75.10727268	     44.99905030	      0.00000000	      0.00000000
      1.91500000	      0.61682338	      4.46672100	     -9.70401067	      1.92438203	      0.90827834	      0.24613502	    -12.95350989	    -11.87894908	     -9.05027817	     38.99298421	      0.68055596	    -29.55712374	    -13.43886923	      0.00000000	     17.96977151	      0.74170507	    -23.12967455	     17.87426209	      0.31196472	    -10.10957342	     -5.01311349	      0.00000000	     11.22922559	     -5.18838140	      7.80731007	     44.09831203	    -15.84699618	     44.09831203	     75.10665806	     44.99906536	      0.00000000	      0.00000000	     44.09831203	    -15.84699618	     44.09831203	     75.10665806	     44.99906536	      0.00000000	      0.00000000
      1.92000000	      0.71624963	      4.71063645	     -9.72030347	      1.93176928	      0.90885859	      0.24531288	    -11.95012847	    -12.39905060	     -8.96612846	     41.13493137	      0.71793999	    -30.28438341	    -14.56562437	      0.00000000	     17.42416954	      1.23188680	    -23.03299583	     17.90284091	      0.31246352	     -9.66758820	     -5.35438129	      0.00000000	     11.29261908	     -5.46774827	      7.76508015	     44.09945963	    -15.84521494	     44.09945963	     75.10621971	     44.99907601	      0.00000000	      0.00000000	     44.09945963	    -15.84521494	     44.09945963	     75.10621971	     44.99907601	      0.00000000	      0.00000000
      1.92500000	      0.70124816	      5.12699101	     -9.80166066	      1.93917856	      0.90919133	      0.24454806	    -10.70273744	    -13.16368014	     -8.91655509	     43.40414520	      0.75754524	    -30.73888002	    -15.36911531	      0.00000000	     16.97627785	      1.87760768	    -23.13817529	     17.80210613	      0.31070537	     -9.39500931	     -5.66405622	      0.00000000	     11.53056736	     -5.88485426	      7.79195900	     44.10145331	    -15.84212375	     44.10145331	     75.10546098	     44.99909426	      0.00000000	      0.00000000	     44.10145331	    -15.84212375	     44.10145331	     75.10546098	     44.99909426	      0.00000000	      0.00000000
      1.93000000	      0.74863748	      5.49374280	     -9.86768090	      1.94654683	      0.90964264	      0.24369924	     -9.56439000	    -13.84677617	     -8.81108425	     45.55487377	      0.79508254	    -30.93790211	    -16.18327910	      0.00000000	     16.43700067	      2.50550465	    -23.20132275	     17.66370413	      0.30828980	     -8.99456175	     -5.91175816	      0.00000000	     11.68339746	     -6.22262624	      7.81033562	     44.10431108	    -15.83770061	     44.10431108	     75.10437998	     44.99911986	      0.00000000	      0.00000000	     44.10431108	    -15.83770061	     44.10431108	     75.10437998	     44.99911986	      0.00000000	      0.00000000
